<svg width="40" height="40" viewBox="0 0 40 40" fill="none" xmlns="http://www.w3.org/2000/svg">
<path d="M36.6667 5.6835L36.4667 3.5835L34.4667 4.25016C31.039 5.44107 27.3788 5.80652 23.7834 5.31683C20.0053 4.73051 16.1382 5.25152 12.65 6.81683C10.8008 7.60424 9.17794 8.84169 7.92914 10.4165C6.68035 11.9913 5.8453 13.8535 5.50002 15.8335C5.05232 18.3913 5.27629 21.0215 6.15002 23.4668C6.71261 22.197 7.37002 20.9713 8.11669 19.8002C9.81035 17.3082 12.1571 15.3305 14.9 14.0835C17.5424 12.877 20.4307 12.3062 23.3334 12.4168C20.5703 12.8403 17.9255 13.8335 15.5667 15.3335C14.4294 16.0485 13.3877 16.9054 12.4667 17.8835C11.5863 18.8615 10.8099 19.9284 10.15 21.0668C8.91112 23.4469 8.02945 25.9965 7.53335 28.6335C6.99869 31.279 6.70858 33.9681 6.66669 36.6668H10C10.1584 34.2467 10.487 31.8408 10.9834 29.4668C13.2957 30.7155 15.8889 31.3523 18.5167 31.3168C20.9675 31.3151 23.3931 30.8221 25.65 29.8668C38.3334 24.4502 36.6667 6.4335 36.6667 5.6835Z" fill="#4EC6B7"/>
</svg>
