<svg width="170" height="170" viewBox="0 0 170 170" fill="none" xmlns="http://www.w3.org/2000/svg">
<path d="M85 14.167C45.8788 14.167 14.1667 45.8791 14.1667 85.0003C14.1667 124.122 45.8788 155.834 85 155.834C124.121 155.834 155.833 124.122 155.833 85.0003C155.833 45.8791 124.121 14.167 85 14.167Z" stroke="black" stroke-width="3" stroke-linecap="round" stroke-linejoin="round"/>
<path d="M30.2529 129.951C30.2529 129.951 46.0417 109.792 85 109.792C123.958 109.792 139.754 129.951 139.754 129.951M85 85C90.6359 85 96.0409 82.7612 100.026 78.776C104.011 74.7909 106.25 69.3858 106.25 63.75C106.25 58.1141 104.011 52.7091 100.026 48.724C96.0409 44.7388 90.6359 42.5 85 42.5C79.3642 42.5 73.9591 44.7388 69.974 48.724C65.9888 52.7091 63.75 58.1141 63.75 63.75C63.75 69.3858 65.9888 74.7909 69.974 78.776C73.9591 82.7612 79.3642 85 85 85Z" stroke="black" stroke-width="3" stroke-linecap="round" stroke-linejoin="round"/>
</svg>
