<svg width="40" height="40" viewBox="0 0 40 40" fill="none" xmlns="http://www.w3.org/2000/svg">
<path d="M19.1663 21.7917V28.7817C19.1663 29.0194 19.2458 29.2178 19.4047 29.3767C19.5636 29.5356 19.7619 29.615 19.9997 29.615C20.2375 29.615 20.4358 29.5356 20.5947 29.3767C20.7536 29.2178 20.833 29.0194 20.833 28.7817V21.7917L23.743 24.7017C23.8241 24.7828 23.9152 24.8439 24.0163 24.885C24.1186 24.925 24.2202 24.9439 24.3213 24.9417C24.4225 24.9383 24.528 24.9161 24.638 24.875C24.7469 24.835 24.8413 24.7739 24.9213 24.6917C25.0991 24.5083 25.1897 24.3122 25.193 24.1033C25.1963 23.8933 25.1063 23.6967 24.923 23.5133L20.9413 19.5317C20.7969 19.3872 20.6486 19.2856 20.4963 19.2267C20.3452 19.1678 20.1797 19.1383 19.9997 19.1383C19.8197 19.1383 19.6541 19.1678 19.503 19.2267C19.3519 19.2856 19.2036 19.3872 19.058 19.5317L15.0763 23.5133C14.9141 23.6756 14.8291 23.8667 14.8213 24.0867C14.8136 24.3067 14.9019 24.5089 15.0863 24.6933C15.2697 24.87 15.4663 24.96 15.6763 24.9633C15.8863 24.9667 16.0825 24.8767 16.2647 24.6933L19.1663 21.7917ZM11.0263 35C10.2586 35 9.61801 34.7433 9.10467 34.23C8.59134 33.7167 8.33412 33.0761 8.33301 32.3083V7.69167C8.33301 6.925 8.59023 6.285 9.10467 5.77167C9.61912 5.25833 10.2597 5.00111 11.0263 5H23.048C23.4069 5 23.7558 5.07222 24.0947 5.21667C24.4336 5.36111 24.7236 5.555 24.9647 5.79833L30.8663 11.7C31.1075 11.9422 31.3008 12.2322 31.4463 12.57C31.5919 12.9078 31.6647 13.2567 31.6647 13.6167V32.3067C31.6647 33.0733 31.4074 33.7139 30.893 34.2283C30.3786 34.7428 29.7391 35 28.9747 35H11.0263ZM23.333 11.9867V6.66667H11.0263C10.7697 6.66667 10.5341 6.77333 10.3197 6.98667C10.1052 7.2 9.99856 7.435 9.99967 7.69167V32.3083C9.99967 32.5639 10.1063 32.7989 10.3197 33.0133C10.533 33.2278 10.768 33.3344 11.0247 33.3333H28.9747C29.2302 33.3333 29.4652 33.2267 29.6797 33.0133C29.8941 32.8 30.0008 32.5644 29.9997 32.3067V13.3333H24.6797C24.2919 13.3333 23.9708 13.2056 23.7163 12.95C23.4619 12.6944 23.3341 12.3733 23.333 11.9867Z" fill="#357FE8"/>
</svg>
