<svg width="40" height="40" viewBox="0 0 40 40" fill="none" xmlns="http://www.w3.org/2000/svg">
<path d="M36.6667 5.68301L36.4667 3.58301L34.4667 4.24967C31.039 5.44058 27.3788 5.80604 23.7834 5.31634C20.0053 4.73003 16.1382 5.25104 12.65 6.81634C10.8008 7.60375 9.17794 8.8412 7.92914 10.416C6.68035 11.9908 5.8453 13.853 5.50002 15.833C5.05232 18.3908 5.27629 21.0211 6.15002 23.4663C6.71261 22.1965 7.37002 20.9708 8.11669 19.7997C9.81035 17.3077 12.1571 15.33 14.9 14.083C17.5424 12.8765 20.4307 12.3057 23.3334 12.4163C20.5703 12.8398 17.9255 13.833 15.5667 15.333C14.4294 16.048 13.3877 16.9049 12.4667 17.883C11.5863 18.861 10.8099 19.9279 10.15 21.0663C8.91112 23.4465 8.02945 25.996 7.53335 28.633C6.99869 31.2785 6.70858 33.9676 6.66669 36.6663H10C10.1584 34.2462 10.487 31.8403 10.9834 29.4663C13.2957 30.715 15.8889 31.3518 18.5167 31.3163C20.9675 31.3147 23.3931 30.8216 25.65 29.8663C38.3334 24.4497 36.6667 6.43301 36.6667 5.68301Z" fill="#4EC6B7"/>
</svg>
