<svg width="97" height="97" viewBox="0 0 97 97" fill="none" xmlns="http://www.w3.org/2000/svg">
<path d="M48.5 1.41699C22.4958 1.41699 1.41663 22.4962 1.41663 48.5003C1.41663 74.5044 22.4958 95.5837 48.5 95.5837C74.5041 95.5837 95.5833 74.5044 95.5833 48.5003C95.5833 22.4962 74.5041 1.41699 48.5 1.41699Z" stroke="black" stroke-width="2" stroke-linecap="round" stroke-linejoin="round"/>
<path d="M12.1093 78.3791C12.1093 78.3791 22.6041 64.9792 48.5 64.9792C74.3958 64.9792 84.8954 78.3791 84.8954 78.3791M48.5 48.5C52.2461 48.5 55.8389 47.0118 58.4878 44.3629C61.1368 41.7139 62.625 38.1212 62.625 34.375C62.625 30.6288 61.1368 27.0361 58.4878 24.3871C55.8389 21.7382 52.2461 20.25 48.5 20.25C44.7538 20.25 41.161 21.7382 38.5121 24.3871C35.8631 27.0361 34.375 30.6288 34.375 34.375C34.375 38.1212 35.8631 41.7139 38.5121 44.3629C41.161 47.0118 44.7538 48.5 48.5 48.5Z" stroke="black" stroke-width="2" stroke-linecap="round" stroke-linejoin="round"/>
</svg>
