<svg width="44" height="44" viewBox="0 0 44 44" fill="none" xmlns="http://www.w3.org/2000/svg">
<path d="M38.5 38.5004L30.5378 30.5382M30.5378 30.5382C31.8998 29.1762 32.9802 27.5594 33.7173 25.7799C34.4543 24.0004 34.8337 22.0931 34.8337 20.167C34.8337 18.2409 34.4544 16.3337 33.7173 14.5542C32.9802 12.7747 31.8998 11.1578 30.5378 9.79588C29.1759 8.43392 27.559 7.35355 25.7795 6.61646C24 5.87937 22.0928 5.5 20.1667 5.5C18.2406 5.5 16.3333 5.87937 14.5538 6.61646C12.7744 7.35355 11.1575 8.43392 9.79551 9.79588C7.04491 12.5465 5.49963 16.2771 5.49963 20.167C5.49963 24.057 7.04491 27.7876 9.79551 30.5382C12.5461 33.2888 16.2767 34.8341 20.1667 34.8341C24.0566 34.8341 27.7872 33.2888 30.5378 30.5382Z" stroke="#357FE8" stroke-width="3" stroke-linecap="round" stroke-linejoin="round"/>
</svg>
