<svg width="30" height="30" viewBox="0 0 30 30" fill="none" xmlns="http://www.w3.org/2000/svg">
<path d="M17.5001 12.4998L13.7501 16.2498M25.3601 3.78854C25.4787 3.7476 25.6064 3.74087 25.7287 3.7691C25.8509 3.79733 25.9628 3.85938 26.0515 3.94817C26.1401 4.03696 26.202 4.14891 26.2301 4.27121C26.2581 4.39351 26.2512 4.52123 26.2101 4.63979L18.8051 25.8023C18.7608 25.9288 18.6795 26.0391 18.5717 26.1188C18.464 26.1985 18.3347 26.244 18.2008 26.2494C18.0669 26.2548 17.9344 26.2198 17.8206 26.149C17.7068 26.0782 17.6169 25.9748 17.5626 25.8523L13.5388 16.7998C13.4711 16.6492 13.3506 16.5287 13.2001 16.461L4.14757 12.436C4.02544 12.3815 3.92247 12.2916 3.85195 12.178C3.78144 12.0643 3.74662 11.9321 3.75201 11.7985C3.75739 11.6648 3.80272 11.5359 3.88215 11.4283C3.96158 11.3206 4.07145 11.2393 4.19757 11.1948L25.3601 3.78854Z" stroke="#357FE8" stroke-width="2" stroke-linecap="round" stroke-linejoin="round"/>
</svg>
