<svg width="33" height="32" viewBox="0 0 33 32" fill="none" xmlns="http://www.w3.org/2000/svg">
<path d="M15.2361 2.03125C15.7021 0.92114 17.2984 0.921141 17.7644 2.03125V2.03223L21.3083 10.3945L21.4265 10.6729L21.7263 10.6982L30.783 11.4668H30.7859C31.9905 11.563 32.489 13.0732 31.5662 13.8721L24.6853 19.834L24.4568 20.0322L24.5261 20.3262L26.5876 29.1748V29.1758C26.8628 30.3595 25.5844 31.2914 24.5398 30.6592L16.7585 25.9531L16.5007 25.7969L16.2419 25.9531L8.46069 30.6406H8.45972C7.41525 31.2727 6.13701 30.3407 6.41187 29.1572L8.47437 20.3066L8.54272 20.0137L8.31519 19.8154L1.43335 13.8535V13.8525C0.510933 13.0535 1.00997 11.5442 2.2146 11.4482H2.21753L11.2732 10.6797L11.574 10.6533L11.6912 10.377L15.2351 2.0332L15.2361 2.03125Z" fill="#FFCC01" stroke="black"/>
</svg>
