<svg width="40" height="40" viewBox="0 0 40 40" fill="none" xmlns="http://www.w3.org/2000/svg">
<path d="M20 29.3516C20.4008 29.6188 20.8183 29.8599 21.25 30.0735V36.2501C21.25 36.5816 21.1183 36.8995 20.8839 37.1339C20.6495 37.3684 20.3316 37.5001 20 37.5001C19.6685 37.5001 19.3506 37.3684 19.1162 37.1339C18.8817 36.8995 18.75 36.5816 18.75 36.2501V30.0735C19.1817 29.8599 19.5993 29.6188 20 29.3516ZM30.9532 9.77974C30.0489 7.62075 28.5268 5.77714 26.578 4.48054C24.6292 3.18394 22.3407 2.49219 20 2.49219C17.6593 2.49219 15.3708 3.18394 13.4221 4.48054C11.4733 5.77714 9.95115 7.62075 9.04691 9.77974C7.09411 10.6723 5.43888 12.1071 4.27822 13.9135C3.11756 15.7199 2.50034 17.8217 2.50004 19.9688C2.48441 25.9376 7.50004 31.0938 13.4594 31.2501C15.2924 31.2936 17.1083 30.8898 18.75 30.0735V24.5219L11.9407 21.1188C11.644 20.9704 11.4183 20.7103 11.3134 20.3956C11.2085 20.0809 11.2329 19.7374 11.3813 19.4407C11.5296 19.144 11.7898 18.9183 12.1045 18.8134C12.4192 18.7085 12.7627 18.7329 13.0594 18.8813L18.75 21.7282V13.7501C18.75 13.4185 18.8817 13.1006 19.1162 12.8662C19.3506 12.6317 19.6685 12.5001 20 12.5001C20.3316 12.5001 20.6495 12.6317 20.8839 12.8662C21.1183 13.1006 21.25 13.4185 21.25 13.7501V17.9782L26.9407 15.1313C27.0876 15.0578 27.2475 15.014 27.4114 15.0024C27.5752 14.9908 27.7397 15.0115 27.8956 15.0634C28.0514 15.1154 28.1955 15.1975 28.3196 15.3051C28.4437 15.4128 28.5453 15.5438 28.6188 15.6907C28.6922 15.8376 28.736 15.9975 28.7477 16.1614C28.7593 16.3252 28.7386 16.4898 28.6866 16.6456C28.6347 16.8014 28.5526 16.9455 28.445 17.0696C28.3373 17.1937 28.2063 17.2953 28.0594 17.3688L21.25 20.7719V30.0735C22.8041 30.8449 24.5151 31.2476 26.25 31.2501H26.5344C32.5 31.0938 37.5172 25.9376 37.5 19.9688C37.4997 17.8217 36.8825 15.7199 35.7219 13.9135C34.5612 12.1071 32.906 10.6723 30.9532 9.77974Z" fill="#7B6CF6"/>
</svg>
