<svg width="44" height="44" viewBox="0 0 44 44" fill="none" xmlns="http://www.w3.org/2000/svg">
<path d="M14.1533 30.1691L17.3818 29.2378L36.8206 9.56613C36.974 9.40901 37.0593 9.19788 37.0583 8.97834C37.0573 8.7588 36.9699 8.54848 36.8151 8.3928L35.651 7.2158C35.5757 7.1385 35.4859 7.07696 35.3866 7.03477C35.2873 6.99258 35.1806 6.97059 35.0728 6.97008C34.9649 6.96957 34.858 6.99054 34.7584 7.03179C34.6587 7.07303 34.5682 7.13372 34.4923 7.2103L15.1048 26.8306L14.1533 30.1691ZM37.9555 4.8838L39.1196 6.06263C40.7256 7.6888 40.7403 10.3123 39.149 11.922L19.118 32.195L12.2173 34.1823C12.0087 34.2409 11.7906 34.2579 11.5754 34.2322C11.3602 34.2066 11.1522 34.1388 10.9632 34.0327C10.7742 33.9267 10.608 33.7844 10.474 33.6141C10.34 33.4438 10.2409 33.2488 10.1823 33.0401C10.0924 32.7376 10.0911 32.4157 10.1786 32.1125L12.1861 25.0725L32.164 4.85263C32.5438 4.47012 32.9961 4.16708 33.4943 3.96118C33.9925 3.75528 34.5268 3.65064 35.0659 3.65337C35.6049 3.6561 36.1381 3.76615 36.6342 3.97708C37.1303 4.18802 37.5795 4.49746 37.9555 4.8838ZM16.8373 6.99763C17.7466 6.99763 18.4836 7.7438 18.4836 8.66413C18.4851 8.88169 18.4436 9.0974 18.3617 9.29893C18.2797 9.50046 18.1588 9.68385 18.0059 9.83863C17.853 9.9934 17.6711 10.1165 17.4706 10.2009C17.27 10.2854 17.0549 10.3294 16.8373 10.3306H10.252C8.43329 10.3306 6.95929 11.823 6.95929 13.6618V33.6561C6.95929 35.4968 8.43329 36.9891 10.252 36.9891H30.008C31.8266 36.9891 33.3025 35.4968 33.3025 33.6561V26.992C33.3025 26.0716 34.0395 25.3255 34.9488 25.3255C35.8581 25.3255 36.5951 26.0716 36.5951 26.9938V33.6561C36.5951 37.3375 33.6453 40.3221 30.008 40.3221H10.252C6.61463 40.3221 3.66663 37.3375 3.66663 33.6561V13.6618C3.66663 9.9823 6.61463 6.99763 10.252 6.99763H16.8373Z" fill="#357FE8"/>
</svg>
